<svg width="270" height="150" viewBox="0 0 270 150" fill="none" xmlns="http://www.w3.org/2000/svg">
<path d="M265.021 99.6928C262.815 99.6928 261.205 97.9559 261.205 95.7693C261.205 93.614 262.815 91.8485 264.991 91.8485C267.167 91.8485 268.748 93.614 268.748 95.7997C268.748 97.9559 267.167 99.6928 265.021 99.6928ZM264.991 90.8597C262.188 90.8597 259.953 93.0463 259.953 95.7693C259.953 98.5539 262.188 100.741 264.991 100.741C267.823 100.741 270 98.5539 270 95.7693C270 93.0463 267.823 90.8597 264.991 90.8597Z" fill="white"/>
<path d="M264.782 95.5602H264.246V94.154C264.365 94.1245 264.574 94.0941 264.872 94.0941C265.586 94.0941 265.915 94.3927 265.915 94.8414C265.915 95.351 265.408 95.5602 264.782 95.5602ZM266.124 95.9204V95.8605C266.721 95.68 267.138 95.2616 267.138 94.7225C267.138 94.2434 266.929 93.8536 266.661 93.6436C266.303 93.4353 265.886 93.286 264.961 93.286C264.156 93.286 263.531 93.345 263.083 93.4353V98.3439H264.215V96.3683H264.753C265.379 96.3683 265.677 96.6079 265.766 97.1469C265.915 97.7155 266.005 98.1651 266.154 98.3439H267.376C267.257 98.1651 267.168 97.8666 267.018 97.1174C266.869 96.4586 266.601 96.1001 266.124 95.9204Z" fill="white"/>
<path d="M133.102 70.2214C133.102 70.2214 132.914 70.3492 132.591 70.587C126.586 75.0335 124.616 83.1631 127.879 89.8998L132.796 100.051L137.848 89.4591C140.852 83.1568 139.339 75.5815 134.069 71.0188C133.761 70.7533 133.44 70.4869 133.102 70.2214Z" fill="white"/>
<path d="M229.723 46.3067C226.778 52.6367 228.364 60.1977 233.676 64.7104C233.986 64.9732 234.31 65.236 234.65 65.4988C234.65 65.4988 234.838 65.3692 235.158 65.1278C241.121 60.625 243.013 52.4758 239.687 45.7703L234.673 35.6669L229.723 46.3067Z" fill="white"/>
<path d="M11.8031 28.6224L13.557 17.0118C14.6004 10.1034 10.9511 3.30134 4.58564 0.480945C4.2144 0.316459 3.82891 0.155547 3.42917 0C3.42917 0 3.28584 0.177896 3.04635 0.500611C-1.40503 6.5124 -0.927841 14.8654 4.1503 20.3534L11.8031 28.6224Z" fill="white"/>
<path d="M0 31.677C0.639218 39.6608 1.04429 106.965 1.04429 106.965H14.499L13.6755 31.3999L0 31.677Z" fill="white"/>
<path d="M77.3149 31.1584C77.3149 31.1584 80.6864 65.1257 77.6425 84.3357C77.6425 84.3357 45.768 48.1497 41.3264 43.5539C36.1467 38.1938 33.7011 34.5858 28.534 32.6728C28.534 32.6728 18.1694 67.1049 23.5538 106.965H36.7949C36.7949 106.965 33.321 76.031 36.3399 57.3663C36.3399 57.3663 66.0974 91.6133 71.0571 96.5774C76.5555 102.081 82.1242 105.368 85.8714 107.315C85.8714 107.315 96.3125 70.509 90.0797 30.9305L77.3149 31.1584Z" fill="white"/>
<path d="M133.051 31.1812C132.994 31.1517 132.921 31.1517 132.837 31.1812C132.837 31.1812 106.032 40.396 94.69 106.965H108.046C108.046 106.965 115.888 62.1296 132.944 47.291C150.381 62.6159 157.843 106.965 157.843 106.965H171.176C159.834 40.396 133.051 31.1812 133.051 31.1812Z" fill="white"/>
<path d="M241.454 15.2341L232.05 5.67428C195.632 42.554 154.901 29.0975 153.117 28.4878L153.617 41.8451C154.53 42.1625 159.707 44.1765 174.315 44.1765C175.467 44.1765 176.646 44.156 177.852 44.1104C178.872 61.7113 178.963 106.965 178.963 106.965L192.301 106.934L191.736 42.5299C207.184 39.5718 224.878 32.0224 241.454 15.2341Z" fill="white"/>
<path d="M268.677 31.3941H255.454C257.051 91.2733 237.755 93.9006 233.567 93.796C232.782 93.8157 231.443 93.7388 229.797 93.2069C225.888 92.211 222.856 89.4058 220.49 85.603C216.2 78.4684 212.318 66.4725 211.673 44.2607C207.597 45.9529 203.41 47.3582 199.124 48.481C200.149 80.6863 210.52 95.5562 219.794 102.001C229.71 108.894 242.878 108.486 251.465 99.983C270.194 81.4336 268.807 34.6597 268.677 31.3941Z" fill="white"/>
<path d="M0.776316 136.162C0.776316 136.162 0.843086 136.062 0.967725 135.892C3.2958 132.721 7.55399 131.68 11.0822 133.403L16.3989 136L10.8507 138.668C7.55043 140.254 3.58336 139.456 1.19386 136.672C1.05408 136.51 0.915199 136.34 0.776316 136.162Z" fill="white"/>
<path d="M255.744 136.162C255.744 136.162 255.678 136.062 255.553 135.892C253.225 132.721 248.966 131.68 245.438 133.403L240.122 136L245.67 138.668C248.97 140.254 252.937 139.456 255.327 136.672C255.466 136.51 255.605 136.34 255.744 136.162Z" fill="white"/>
<path d="M26.1127 140.068H34.8045C33.38 136.91 31.8817 133.749 30.4572 130.813C28.9954 133.749 27.5345 136.91 26.1127 140.068ZM36.8263 144.582H24.0517C23.3012 146.276 22.5534 147.97 21.9159 149.623H16.1078C20.3784 140.22 25.6248 129.687 30.2712 121.409H30.6086C35.2532 129.687 40.4996 140.22 44.7702 149.623H38.9621C38.3246 147.93 37.5768 146.276 36.8263 144.582Z" fill="white"/>
<path d="M79.0894 121.409V149.623H73.6943L73.8074 133.447C70.4341 137.247 66.1261 143.04 63.6547 146.614H63.3547C60.8832 143.003 56.5725 137.247 53.2384 133.447L53.3524 149.623H47.9181V121.409C50.3166 121.409 58.5961 131.793 63.5033 138.301C68.4132 131.793 76.7311 121.409 79.0894 121.409Z" fill="white"/>
<path d="M92.2818 140.068H100.974C99.5491 136.91 98.0508 133.749 96.6263 130.813C95.1645 133.749 93.7035 136.91 92.2818 140.068ZM102.994 144.582H90.2208C89.4703 146.276 88.7225 147.97 88.085 149.623H82.2769C86.5502 140.22 91.7939 129.687 96.4385 121.409H96.7777C101.422 129.687 106.668 140.22 110.938 149.623H105.133C104.494 147.93 103.745 146.276 102.994 144.582Z" fill="white"/>
<path d="M132.858 145.109V149.624H112.066C112.066 145.299 121.357 133.108 124.953 126.301H112.289V121.784H132.633C132.633 126.112 123.305 138.3 119.708 145.109H132.858Z" fill="white"/>
<path d="M158.973 135.706C158.973 129.836 155.377 125.923 150.018 125.923C144.624 125.923 141.027 129.836 141.027 135.706C141.027 141.573 144.624 145.485 150.018 145.485C155.377 145.485 158.973 141.573 158.973 135.706ZM135.406 135.706C135.406 127.126 141.251 121.409 150.018 121.409C158.711 121.409 164.592 127.126 164.592 135.706C164.592 144.282 158.711 150 150.018 150C141.251 150 135.406 144.282 135.406 135.706Z" fill="white"/>
<path d="M195.803 150C193.03 150 181.716 138.076 175.085 131.755L175.159 149.624H169.726V121.409C172.501 121.409 183.776 133.335 190.407 139.655L190.333 121.784H195.803V150Z" fill="white"/>
<path d="M208.058 149.623H202.624V121.783H208.058V149.623Z" fill="white"/>
<path d="M221.283 140.068H229.975C228.551 136.91 227.052 133.749 225.628 130.813C224.166 133.749 222.705 136.91 221.283 140.068ZM231.997 144.582H219.222C218.472 146.276 217.724 147.97 217.087 149.623H211.278C215.549 140.22 220.795 129.687 225.442 121.409H225.779C230.424 129.687 235.67 140.22 239.941 149.623H234.133C233.495 147.93 232.747 146.276 231.997 144.582Z" fill="white"/>
<path d="M159.337 119.809L157.463 115.737C156.347 113.314 153.758 111.917 151.137 112.363C150.984 112.389 150.829 112.419 150.669 112.454C150.669 112.454 150.66 112.541 150.651 112.694C150.491 115.551 152.395 118.114 155.164 118.79L159.337 119.809Z" fill="white"/>
<path d="M141.64 119.347L146.006 118.394C148.603 117.826 150.524 115.592 150.659 112.926C150.667 112.772 150.672 112.611 150.673 112.446C150.673 112.446 150.59 112.419 150.443 112.377C147.7 111.601 144.795 112.91 143.537 115.478L141.64 119.347Z" fill="white"/>
</svg>
