<svg width="693" height="385" viewBox="0 0 693 385" fill="none" xmlns="http://www.w3.org/2000/svg">
<path d="M680.22 255.878C674.557 255.878 670.426 251.42 670.426 245.808C670.426 240.276 674.557 235.744 680.144 235.744C685.729 235.744 689.787 240.276 689.787 245.886C689.787 251.42 685.729 255.878 680.22 255.878ZM680.144 233.207C672.949 233.207 667.213 238.819 667.213 245.808C667.213 252.955 672.949 258.567 680.144 258.567C687.413 258.567 693 252.955 693 245.808C693 238.819 687.413 233.207 680.144 233.207Z" fill="#3A2212"/>
<path d="M679.608 245.271H678.23V241.662C678.537 241.586 679.074 241.508 679.839 241.508C681.672 241.508 682.515 242.275 682.515 243.426C682.515 244.734 681.215 245.271 679.608 245.271ZM683.052 246.196V246.042C684.583 245.579 685.655 244.505 685.655 243.121C685.655 241.891 685.118 240.891 684.43 240.352C683.511 239.817 682.44 239.434 680.068 239.434C678 239.434 676.396 239.585 675.246 239.817V252.416H678.153V247.345H679.533C681.139 247.345 681.905 247.96 682.133 249.344C682.515 250.803 682.746 251.957 683.13 252.416H686.265C685.958 251.957 685.73 251.191 685.346 249.268C684.964 247.577 684.277 246.657 683.052 246.196Z" fill="#3A2212"/>
<path d="M341.629 180.235C341.629 180.235 341.145 180.563 340.318 181.173C324.905 192.586 319.848 213.452 328.223 230.743L340.843 256.797L353.809 229.612C361.521 213.436 357.636 193.993 344.111 182.282C343.32 181.6 342.495 180.916 341.629 180.235Z" fill="#3A2212"/>
<path d="M589.623 118.854C582.062 135.101 586.134 154.507 599.769 166.09C600.564 166.764 601.396 167.439 602.269 168.114C602.269 168.114 602.751 167.781 603.571 167.161C618.877 155.604 623.735 134.688 615.195 117.477L602.328 91.5451L589.623 118.854Z" fill="#3A2212"/>
<path d="M30.2947 73.4641L34.7962 43.6636C37.4743 25.932 28.1079 8.47345 11.7698 1.23443C10.8169 0.812244 9.82752 0.399236 8.80154 0C8.80154 0 8.43365 0.456601 7.81897 1.2849C-3.60624 16.7152 -2.38146 38.1546 10.6524 52.2403L30.2947 73.4641Z" fill="#3A2212"/>
<path d="M0 81.3043C1.64066 101.796 2.68036 274.544 2.68036 274.544H37.2142L35.1005 80.593L0 81.3043Z" fill="#3A2212"/>
<path d="M198.442 79.9733C198.442 79.9733 207.095 167.156 199.282 216.462C199.282 216.462 117.471 123.584 106.071 111.788C92.7766 98.0307 86.4996 88.7703 73.2372 83.8601C73.2372 83.8601 46.6347 172.236 60.4547 274.544H94.4401C94.4401 274.544 85.5239 195.146 93.2725 147.24C93.2725 147.24 169.65 235.141 182.38 247.882C196.492 262.009 210.785 270.446 220.403 275.443C220.403 275.443 247.202 180.973 231.205 79.3882L198.442 79.9733Z" fill="#3A2212"/>
<path d="M341.498 80.0318C341.352 79.956 341.164 79.956 340.949 80.0318C340.949 80.0318 272.149 103.683 243.038 274.542H277.318C277.318 274.542 297.447 159.466 341.224 121.38C385.978 160.714 405.129 274.542 405.129 274.542H439.352C410.241 103.683 341.498 80.0318 341.498 80.0318Z" fill="#3A2212"/>
<path d="M619.731 39.101L595.596 14.564C502.122 109.222 397.579 74.6835 393 73.1186L394.284 107.402C396.626 108.217 409.916 113.386 447.409 113.386C450.366 113.386 453.391 113.334 456.487 113.217C459.104 158.392 459.339 274.543 459.339 274.543L493.574 274.465L492.123 109.16C531.773 101.568 577.186 82.191 619.731 39.101Z" fill="#3A2212"/>
<path d="M689.605 80.5782H655.666C659.765 234.268 610.237 241.012 599.488 240.743C597.475 240.794 594.038 240.596 589.813 239.231C579.779 236.675 571.996 229.475 565.925 219.714C554.914 201.402 544.948 170.613 543.294 113.602C532.833 117.946 522.087 121.553 511.084 124.435C513.716 207.095 540.335 245.261 564.138 261.802C589.589 279.494 623.387 278.448 645.426 256.623C693.499 209.013 689.937 88.9599 689.605 80.5782Z" fill="#3A2212"/>
<path d="M1.99254 349.483C1.99254 349.483 2.16392 349.226 2.48383 348.79C8.45921 340.649 19.3886 337.979 28.4442 342.402L42.0905 349.068L27.8501 355.914C19.3794 359.985 9.19728 357.936 3.06423 350.791C2.70548 350.376 2.34901 349.94 1.99254 349.483Z" fill="#3A2212"/>
<path d="M656.41 349.483C656.41 349.483 656.241 349.226 655.919 348.79C649.943 340.649 639.014 337.979 629.958 342.402L616.312 349.068L630.552 355.914C639.023 359.985 649.205 357.936 655.338 350.791C655.697 350.376 656.053 349.94 656.41 349.483Z" fill="#3A2212"/>
<path d="M67.0226 359.508H89.3315C85.6754 351.401 81.8297 343.288 78.1736 335.753C74.4215 343.288 70.6718 351.401 67.0226 359.508ZM94.5208 371.095H61.7327C59.8064 375.443 57.887 379.791 56.2509 384.033H41.3433C52.3046 359.898 65.7704 332.862 77.696 311.615H78.562C90.4831 332.862 103.949 359.898 114.91 384.033H100.003C98.3665 379.687 96.4471 375.443 94.5208 371.095Z" fill="#3A2212"/>
<path d="M202.996 311.615V384.033H189.149L189.439 342.515C180.781 352.269 169.724 367.137 163.38 376.31H162.61C156.267 367.04 145.203 352.269 136.645 342.515L136.938 384.033H122.99V311.615C129.146 311.615 150.397 338.268 162.992 354.971C175.594 338.268 196.943 311.615 202.996 311.615Z" fill="#3A2212"/>
<path d="M236.857 359.508H259.165C255.509 351.401 251.664 343.288 248.008 335.753C244.256 343.288 240.506 351.401 236.857 359.508ZM264.352 371.095H231.567C229.64 375.443 227.721 379.791 226.085 384.033H211.177C222.145 359.898 235.604 332.862 247.525 311.615H248.396C260.317 332.862 273.781 359.898 284.742 384.033H269.841C268.201 379.687 266.279 375.443 264.352 371.095Z" fill="#3A2212"/>
<path d="M341.002 372.448V384.035H287.635C287.635 372.934 311.482 341.645 320.714 324.172H288.209V312.578H340.424C340.424 323.688 316.482 354.971 307.25 372.448H341.002Z" fill="#3A2212"/>
<path d="M408.032 348.311C408.032 333.246 398.8 323.203 385.047 323.203C371.202 323.203 361.97 333.246 361.97 348.311C361.97 363.37 371.202 373.413 385.047 373.413C398.8 373.413 408.032 363.37 408.032 348.311ZM347.542 348.311C347.542 326.291 362.544 311.616 385.047 311.616C407.358 311.616 422.453 326.291 422.453 348.311C422.453 370.324 407.358 385 385.047 385C362.544 385 347.542 370.324 347.542 348.311Z" fill="#3A2212"/>
<path d="M502.56 385C495.444 385 466.404 354.394 449.385 338.172L449.574 384.034H435.631V311.616C442.751 311.616 471.691 342.227 488.71 358.448L488.521 312.58H502.56V385Z" fill="#3A2212"/>
<path d="M534.015 384.033H520.067V312.577H534.015V384.033Z" fill="#3A2212"/>
<path d="M567.96 359.508H590.269C586.613 351.401 582.768 343.288 579.111 335.753C575.359 343.288 571.61 351.401 567.96 359.508ZM595.459 371.095H562.671C560.744 375.443 558.825 379.791 557.189 384.033H542.281C553.242 359.898 566.708 332.862 578.634 311.615H579.5C591.421 332.862 604.887 359.898 615.848 384.033H600.94C599.304 379.687 597.385 375.443 595.459 371.095Z" fill="#3A2212"/>
<path d="M408.965 307.51L404.155 297.059C401.291 290.839 394.647 287.255 387.919 288.397C387.526 288.464 387.126 288.542 386.717 288.632C386.717 288.632 386.695 288.854 386.672 289.249C386.26 296.582 391.146 303.16 398.255 304.895L408.965 307.51Z" fill="#3A2212"/>
<path d="M363.543 306.323L374.749 303.877C381.414 302.42 386.345 296.686 386.693 289.844C386.713 289.447 386.725 289.034 386.727 288.612C386.727 288.612 386.514 288.543 386.137 288.435C379.097 286.444 371.641 289.803 368.412 296.393L363.543 306.323Z" fill="#3A2212"/>
</svg>
